name rise36.2859peak64.2979fall75.1499.mot
datacolumns 19
datarows 33
range 12.504956 12.558283
endheader
time	ground_force1_vx	ground_force1_vy	ground_force1_vz	ground_force1_px	ground_force1_py	ground_force1_pz	ground_force2_vx	ground_force2_vy	ground_force2_vz	ground_force2_px	ground_force2_py	ground_force2_pz	ground_torque1_x	ground_torque1_y	ground_torque1_z	ground_torque2_x	ground_torque2_y	ground_torque2_z	
12.504956	58.795749	601.830658	47.744951	0.459728	0.000000	0.100329	-23.654420	193.434287	4.011915	0.206344	0.000000	-0.081465	0.000000	30.523738	0.000000	0.000000	-2.977766	0.000000	
12.506620	58.632205	606.320252	48.009897	0.458687	0.000000	0.100343	-22.000666	184.772432	4.293559	0.208640	0.000000	-0.080821	0.000000	30.691210	0.000000	0.000000	-2.528320	0.000000	
12.508286	58.439847	610.786997	48.261256	0.457584	0.000000	0.100360	-20.352174	176.315103	4.555981	0.211006	0.000000	-0.080161	0.000000	30.845868	0.000000	0.000000	-2.086445	0.000000	
12.509953	58.220414	615.233448	48.500887	0.456423	0.000000	0.100382	-18.708777	168.077250	4.801253	0.213441	0.000000	-0.079483	0.000000	30.989185	0.000000	0.000000	-1.651395	0.000000	
12.511617	57.975639	619.661890	48.730628	0.455205	0.000000	0.100409	-17.070645	160.069247	5.031029	0.215943	0.000000	-0.078786	0.000000	31.122626	0.000000	0.000000	-1.222656	0.000000	
12.513288	57.707243	624.074322	48.952276	0.453933	0.000000	0.100440	-15.438683	152.295383	5.246304	0.218513	0.000000	-0.078070	0.000000	31.247636	0.000000	0.000000	-0.800136	0.000000	
12.514961	57.416927	628.472441	49.167583	0.452610	0.000000	0.100476	-13.814978	144.752523	5.447176	0.221148	0.000000	-0.077334	0.000000	31.365628	0.000000	0.000000	-0.384352	0.000000	
12.516615	57.106366	632.857638	49.378243	0.451238	0.000000	0.100517	-12.203235	137.429089	5.632632	0.223849	0.000000	-0.076574	0.000000	31.477979	0.000000	0.000000	0.023381	0.000000	
12.518285	56.777199	637.230982	49.585883	0.449820	0.000000	0.100562	-10.609170	130.304522	5.800394	0.226612	0.000000	-0.075791	0.000000	31.586016	0.000000	0.000000	0.420795	0.000000	
12.519954	56.431031	641.593216	49.792055	0.448360	0.000000	0.100613	-9.040826	123.349404	5.946841	0.229437	0.000000	-0.074982	0.000000	31.691011	0.000000	0.000000	0.804564	0.000000	
12.521630	56.069419	645.944749	49.998226	0.446860	0.000000	0.100669	-7.508739	116.526357	6.067031	0.232321	0.000000	-0.074145	0.000000	31.794176	0.000000	0.000000	1.170269	0.000000	
12.523287	55.693872	650.285654	50.205772	0.445324	0.000000	0.100730	-6.025929	109.791810	6.154858	0.235262	0.000000	-0.073278	0.000000	31.896650	0.000000	0.000000	1.512451	0.000000	
12.524952	55.305845	654.615668	50.415969	0.443754	0.000000	0.100796	-4.607673	103.098680	6.203335	0.238257	0.000000	-0.072377	0.000000	31.999501	0.000000	0.000000	1.824775	0.000000	
12.526624	54.906737	658.934187	50.629991	0.442153	0.000000	0.100867	-3.271025	96.399894	6.205022	0.241301	0.000000	-0.071440	0.000000	32.103716	0.000000	0.000000	2.100304	0.000000	
12.528283	54.497883	663.240271	50.848902	0.440526	0.000000	0.100943	-2.034085	89.652611	6.152588	0.244392	0.000000	-0.070464	0.000000	32.210198	0.000000	0.000000	2.331886	0.000000	
12.529951	54.080556	667.532647	51.073650	0.438876	0.000000	0.101024	-0.915031	82.822894	6.039464	0.247524	0.000000	-0.069442	0.000000	32.319763	0.000000	0.000000	2.512649	0.000000	
12.531619	53.655961	671.809715	51.305069	0.437205	0.000000	0.101110	0.069053	75.890459	5.860567	0.250690	0.000000	-0.068371	0.000000	32.433137	0.000000	0.000000	2.636560	0.000000	
12.533289	53.225235	676.069554	51.543871	0.435517	0.000000	0.101200	0.903456	68.853078	5.613022	0.253884	0.000000	-0.067243	0.000000	32.550955	0.000000	0.000000	2.699026	0.000000	
12.534959	52.789442	680.309932	51.790648	0.433815	0.000000	0.101295	1.577156	61.730089	5.296816	0.257095	0.000000	-0.066052	0.000000	32.673759	0.000000	0.000000	2.697476	0.000000	
12.536619	52.349576	684.528318	52.045868	0.432103	0.000000	0.101394	2.084017	54.564502	4.915300	0.260313	0.000000	-0.064788	0.000000	32.801998	0.000000	0.000000	2.631861	0.000000	
12.538287	51.906557	688.721892	52.309877	0.430384	0.000000	0.101497	2.423755	47.423181	4.475462	0.263523	0.000000	-0.063439	0.000000	32.936027	0.000000	0.000000	2.505007	0.000000	
12.539957	51.461232	692.887560	52.582899	0.428660	0.000000	0.101605	2.602498	40.394697	3.987895	0.266709	0.000000	-0.061992	0.000000	33.076112	0.000000	0.000000	2.322753	0.000000	
12.541621	51.014374	697.021971	52.865038	0.426934	0.000000	0.101716	2.632855	33.584677	3.466409	0.269846	0.000000	-0.060427	0.000000	33.222425	0.000000	0.000000	2.093820	0.000000	
12.543287	50.566684	701.121531	53.156277	0.425211	0.000000	0.101830	2.533386	27.108723	2.927277	0.272906	0.000000	-0.058722	0.000000	33.375051	0.000000	0.000000	1.829388	0.000000	
12.544961	50.118788	705.182427	53.456486	0.423492	0.000000	0.101948	2.327482	21.083431	2.388158	0.000000	0.000000	0.000000	0.000000	33.533989	0.000000	0.000000	0.751306	0.000000	
12.546619	49.671241	709.200641	53.765421	0.421779	0.000000	0.102069	2.041753	15.616462	1.866798	0.000000	0.000000	0.000000	0.000000	33.699155	0.000000	0.000000	0.614648	0.000000	
12.548289	49.224529	713.171971	54.082731	0.420077	0.000000	0.102193	1.704121	10.797009	1.379687	0.000000	0.000000	0.000000	0.000000	33.870388	0.000000	0.000000	0.478360	0.000000	
12.549953	48.779066	717.092057	54.407961	0.418387	0.000000	0.102320	1.341862	6.688015	0.940843	0.000000	0.000000	0.000000	0.000000	34.047449	0.000000	0.000000	0.348477	0.000000	
12.551619	48.335201	720.956399	54.740559	0.416711	0.000000	0.102449	0.979850	3.321193	0.560891	0.000000	0.000000	0.000000	0.000000	34.230029	0.000000	0.000000	0.230092	0.000000	
12.553287	47.893216	724.760384	55.079881	0.415052	0.000000	0.102580	0.000000	0.000000	0.000000	0.000000	0.000000	0.000000	0.000000	34.417754	0.000000	0.000000	0.000000	0.000000	
12.554957	47.453332	728.499306	55.425196	0.413412	0.000000	0.102713	0.000000	0.000000	0.000000	0.000000	0.000000	0.000000	0.000000	34.610188	0.000000	0.000000	0.000000	0.000000	
12.556615	47.015708	732.168393	55.775697	0.411793	0.000000	0.102848	0.000000	0.000000	0.000000	0.000000	0.000000	0.000000	0.000000	34.806839	0.000000	0.000000	0.000000	0.000000	
12.558283	46.580447	735.762830	56.130502	0.410196	0.000000	0.102984	0.000000	0.000000	0.000000	0.000000	0.000000	0.000000	0.000000	35.007165	0.000000	0.000000	0.000000	0.000000	
